# xmcd
#
# Track frame offsets:
#	150
#	17017
#	31385
#	48572
#	79455
#	103552
#	118397
#	153492
#	169615
#	185475
#	209735
#	221955
#	253962
#	287847
#	302082
#	317710
#
# Disc length: 4459 seconds
#
# Revision: 10
# Processed by: cddbd v1.5.1PL2 Copyright (c) Steve Scherf et al.
# Submitted via: Bouchi 2006-04
#
DISCID=f7116910
DTITLE=Various Artist - Electro Jazz Session [CD1)
DYEAR=2002
DGENRE=Jazz
TTITLE0=Two Banks Of Four - Homegirl
TTITLE1=Dj Matsuoka - Piano Objective 3
TTITLE2=Monsieur Charles feat. E. Weston and M. Turner - Light Of The Sun (Summer Mix)
TTITLE3=Les Gammas - La Vie Des Anges
TTITLE4=Nathan Haines - Wonderful Thing
TTITLE5=The Amalgamation Of Soundz - Keyvan's Paper (Document 3)
TTITLE6=Aqua Bassino - Time...
TTITLE7=David Grumel - Beaurivage
TTITLE8=Nicola Conte - Fuoco Fatuo
TTITLE9=De-Phazz - Pressurized
TTITLE10=Dominique Dalcan - The Look Of Love
TTITLE11=Gotan Project Meet Chet Baker - Round About Midnight
TTITLE12=United Future Organization - No Problem
TTITLE13=Lahr - Winter
TTITLE14=Alex Sound System - Mozambik Jazz
TTITLE15=Seelenluft - Manila
EXTD=YEAR: 2002
EXTT0=
EXTT1=
EXTT2=
EXTT3=
EXTT4=
EXTT5=
EXTT6=
EXTT7=
EXTT8=
EXTT9=
EXTT10=
EXTT11=
EXTT12=
EXTT13=
EXTT14=
EXTT15=
PLAYORDER=
